<svg id="visual" viewBox="0 0 900 600" width="900" height="600" xmlns="http://www.w3.org/2000/svg" xmlns:xlink="http://www.w3.org/1999/xlink" version="1.1"><rect x="0" y="0" width="900" height="600" fill="#001220"></rect><path d="M0 417L21.5 420.5C43 424 86 431 128.8 425C171.7 419 214.3 400 257.2 396.8C300 393.7 343 406.3 385.8 402.7C428.7 399 471.3 379 514.2 380.3C557 381.7 600 404.3 642.8 416.2C685.7 428 728.3 429 771.2 417.2C814 405.3 857 380.7 878.5 368.3L900 356L900 601L878.5 601C857 601 814 601 771.2 601C728.3 601 685.7 601 642.8 601C600 601 557 601 514.2 601C471.3 601 428.7 601 385.8 601C343 601 300 601 257.2 601C214.3 601 171.7 601 128.8 601C86 601 43 601 21.5 601L0 601Z" fill="#fa7268"></path><path d="M0 474L21.5 469.7C43 465.3 86 456.7 128.8 452.3C171.7 448 214.3 448 257.2 449.5C300 451 343 454 385.8 449.3C428.7 444.7 471.3 432.3 514.2 423.2C557 414 600 408 642.8 417.8C685.7 427.7 728.3 453.3 771.2 458.3C814 463.3 857 447.7 878.5 439.8L900 432L900 601L878.5 601C857 601 814 601 771.2 601C728.3 601 685.7 601 642.8 601C600 601 557 601 514.2 601C471.3 601 428.7 601 385.8 601C343 601 300 601 257.2 601C214.3 601 171.7 601 128.8 601C86 601 43 601 21.5 601L0 601Z" fill="#ef5f67"></path><path d="M0 507L21.5 506.5C43 506 86 505 128.8 497.7C171.7 490.3 214.3 476.7 257.2 470.3C300 464 343 465 385.8 463.7C428.7 462.3 471.3 458.7 514.2 465.7C557 472.7 600 490.3 642.8 491.7C685.7 493 728.3 478 771.2 467.5C814 457 857 451 878.5 448L900 445L900 601L878.5 601C857 601 814 601 771.2 601C728.3 601 685.7 601 642.8 601C600 601 557 601 514.2 601C471.3 601 428.7 601 385.8 601C343 601 300 601 257.2 601C214.3 601 171.7 601 128.8 601C86 601 43 601 21.5 601L0 601Z" fill="#e34c67"></path><path d="M0 489L21.5 492.8C43 496.7 86 504.3 128.8 507.8C171.7 511.3 214.3 510.7 257.2 506C300 501.3 343 492.7 385.8 496.5C428.7 500.3 471.3 516.7 514.2 525.3C557 534 600 535 642.8 529.3C685.7 523.7 728.3 511.3 771.2 506C814 500.7 857 502.3 878.5 503.2L900 504L900 601L878.5 601C857 601 814 601 771.2 601C728.3 601 685.7 601 642.8 601C600 601 557 601 514.2 601C471.3 601 428.7 601 385.8 601C343 601 300 601 257.2 601C214.3 601 171.7 601 128.8 601C86 601 43 601 21.5 601L0 601Z" fill="#d53867"></path><path d="M0 533L21.5 531.8C43 530.7 86 528.3 128.8 530.8C171.7 533.3 214.3 540.7 257.2 546.2C300 551.7 343 555.3 385.8 553.5C428.7 551.7 471.3 544.3 514.2 540.8C557 537.3 600 537.7 642.8 540.7C685.7 543.7 728.3 549.3 771.2 552.2C814 555 857 555 878.5 555L900 555L900 601L878.5 601C857 601 814 601 771.2 601C728.3 601 685.7 601 642.8 601C600 601 557 601 514.2 601C471.3 601 428.7 601 385.8 601C343 601 300 601 257.2 601C214.3 601 171.7 601 128.8 601C86 601 43 601 21.5 601L0 601Z" fill="#c62368"></path></svg>